<svg id="svg" version="1.1" width="400" height="400" viewBox="0 0 400 400" xmlns="http://www.w3.org/2000/svg" xmlns:xlink="http://www.w3.org/1999/xlink"><g id="svgg"><path id="path0" d="M0.000 200.000 L 0.000 400.000 200.000 400.000 L 400.000 400.000 400.000 200.000 L 400.000 0.000 200.000 0.000 L 0.000 0.000 0.000 200.000 M201.716 81.418 C 202.849 85.306,205.319 86.851,211.829 87.740 C 213.401 87.955,214.645 88.173,214.594 88.224 C 214.543 88.275,213.113 88.540,211.415 88.813 C 203.290 90.120,201.547 92.126,200.449 101.435 L 200.204 103.509 199.654 100.083 C 198.289 91.573,196.913 90.117,189.030 88.835 C 187.470 88.581,186.143 88.323,186.081 88.261 C 186.019 88.199,187.152 87.973,188.598 87.759 C 196.526 86.586,198.325 84.718,199.574 76.362 L 200.136 72.601 200.659 76.093 C 200.946 78.014,201.422 80.410,201.716 81.418 M200.683 113.742 C 201.119 126.605,201.605 149.317,201.678 160.242 L 201.754 171.680 200.480 171.797 C 199.741 171.864,199.028 172.151,198.782 172.480 C 198.210 173.243,198.537 149.035,199.563 114.582 C 199.836 105.452,200.388 105.038,200.683 113.742 M195.471 164.753 C 195.492 173.415,195.490 173.426,193.939 173.385 C 193.325 173.368,192.718 173.501,192.589 173.679 C 192.244 174.156,192.284 173.210,192.979 164.434 C 194.114 150.116,194.602 144.670,194.824 143.860 C 195.090 142.882,195.447 154.382,195.471 164.753 M207.138 160.606 C 207.419 163.939,207.744 168.062,207.858 169.768 L 208.067 172.869 207.009 172.565 C 206.286 172.358,205.817 172.373,205.527 172.613 C 205.176 172.905,205.104 170.675,205.107 159.608 C 205.112 139.915,205.404 140.059,207.138 160.606 M183.860 174.011 C 183.316 174.249,179.727 175.867,175.885 177.605 C 172.043 179.344,167.177 181.533,165.072 182.470 C 162.967 183.408,160.885 184.412,160.447 184.703 C 160.008 184.993,158.604 185.775,157.328 186.439 C 156.051 187.104,155.046 187.685,155.095 187.731 C 155.144 187.776,157.982 188.630,161.404 189.628 C 164.825 190.626,173.724 193.313,181.180 195.599 C 188.636 197.886,195.992 200.118,197.525 200.561 L 200.313 201.365 213.793 197.291 C 221.207 195.050,231.292 192.012,236.204 190.540 C 241.116 189.068,245.270 187.822,245.435 187.771 C 246.002 187.597,238.741 183.976,229.187 179.670 C 212.943 172.348,213.185 172.559,224.685 175.741 C 240.480 180.112,243.336 180.935,251.515 183.465 C 256.077 184.877,261.675 186.594,263.955 187.282 C 266.236 187.970,268.246 188.578,268.421 188.633 C 268.596 188.688,261.635 191.067,252.951 193.920 C 244.266 196.772,228.836 201.871,218.662 205.250 L 200.162 211.394 187.083 206.955 C 174.478 202.678,151.189 195.011,138.596 190.994 C 135.263 189.931,132.429 188.968,132.298 188.854 C 132.168 188.741,134.752 187.830,138.040 186.831 C 141.329 185.831,147.321 184.003,151.356 182.767 C 155.391 181.532,163.285 179.245,168.900 177.684 C 174.514 176.123,180.112 174.560,181.340 174.210 C 183.984 173.458,185.369 173.349,183.860 174.011 M202.576 185.178 C 204.882 185.964,208.917 187.099,217.384 189.344 C 219.665 189.948,221.746 190.529,222.010 190.634 C 222.542 190.847,221.774 191.106,208.931 195.044 L 200.159 197.734 189.952 194.527 C 184.338 192.763,179.547 191.211,179.304 191.078 C 178.829 190.818,178.765 190.839,190.541 187.399 C 194.548 186.229,198.280 185.074,198.834 184.833 C 200.126 184.271,199.838 184.244,202.576 185.178 M135.261 193.434 C 137.095 194.033,144.195 196.346,151.037 198.573 C 170.162 204.800,198.218 214.391,198.480 214.792 C 198.957 215.523,198.766 224.880,198.274 224.880 C 198.027 224.880,187.440 221.093,174.749 216.464 C 162.058 211.835,148.230 206.811,144.019 205.299 C 139.809 203.788,135.287 202.152,133.971 201.663 L 131.579 200.775 131.490 196.560 C 131.441 194.241,131.519 192.344,131.663 192.344 C 131.807 192.344,133.426 192.835,135.261 193.434 M268.579 196.571 L 268.577 200.797 264.831 202.185 C 262.770 202.948,252.616 206.651,242.265 210.413 C 231.914 214.175,222.153 217.741,220.574 218.338 C 218.995 218.936,214.270 220.658,210.073 222.167 C 205.877 223.675,202.321 224.986,202.171 225.078 C 202.021 225.171,201.938 222.847,201.986 219.915 L 202.073 214.584 207.177 212.830 C 220.037 208.411,267.826 192.377,268.182 192.362 C 268.482 192.349,268.580 193.392,268.579 196.571 M68.810 240.878 C 70.926 241.500,71.173 241.514,71.874 241.055 L 72.636 240.555 72.839 243.164 C 73.264 248.621,72.967 249.448,71.652 246.474 C 68.550 239.460,58.164 239.158,58.230 246.083 C 58.258 249.058,58.845 249.553,66.667 253.205 C 72.370 255.867,73.982 257.744,73.996 261.740 C 74.020 268.335,66.780 271.787,58.287 269.230 C 56.224 268.609,55.669 268.547,54.976 268.863 C 53.918 269.345,54.028 269.707,53.798 264.967 C 53.578 260.427,53.828 259.961,54.981 262.762 C 58.272 270.755,69.856 271.295,69.856 263.456 C 69.856 260.463,68.435 259.182,62.254 256.604 C 56.300 254.121,54.226 251.912,54.226 248.055 C 54.226 241.626,60.628 238.476,68.810 240.878 M258.373 240.206 C 275.048 242.847,275.003 267.369,258.319 269.909 C 250.201 271.146,242.892 266.746,241.001 259.485 C 238.033 248.090,246.791 238.371,258.373 240.206 M112.334 243.541 C 112.363 245.207,112.399 246.810,112.414 247.103 C 112.476 248.346,111.730 247.679,110.767 245.630 C 109.454 242.835,108.467 242.103,105.581 241.786 C 102.658 241.465,101.731 241.655,101.898 242.540 C 101.968 242.915,102.037 248.772,102.050 255.557 L 102.073 267.891 103.668 268.421 C 106.364 269.316,105.543 269.537,99.522 269.537 C 93.458 269.537,92.786 269.350,95.386 268.381 L 96.991 267.783 97.060 254.785 L 97.129 241.786 94.647 241.786 C 90.730 241.786,88.879 243.056,87.733 246.529 C 87.494 247.254,87.170 247.847,87.013 247.847 C 86.732 247.847,86.699 241.219,86.977 240.750 C 87.055 240.618,92.780 240.510,99.700 240.510 L 112.281 240.510 112.334 243.541 M137.634 241.069 C 138.847 244.121,143.139 255.357,145.015 260.392 C 147.905 268.144,147.707 267.780,149.446 268.550 C 151.575 269.491,151.372 269.537,145.136 269.537 C 139.137 269.537,138.384 269.338,140.840 268.400 C 142.818 267.645,142.810 267.727,141.288 263.620 L 139.935 259.968 134.112 259.968 L 128.290 259.968 127.275 262.759 C 125.604 267.351,125.612 267.499,127.550 268.304 C 130.012 269.327,129.584 269.537,125.040 269.537 C 120.692 269.537,120.060 269.302,122.157 268.463 C 123.977 267.735,124.355 266.897,131.903 246.838 L 133.423 242.799 132.740 241.930 C 131.703 240.612,131.847 240.510,134.735 240.510 C 136.987 240.510,137.447 240.599,137.634 241.069 M174.013 245.823 C 176.464 248.745,178.898 251.652,179.422 252.282 C 179.947 252.913,182.064 255.412,184.127 257.835 L 187.879 262.241 187.879 252.489 L 187.879 242.736 186.124 241.876 C 183.626 240.650,183.869 240.510,188.498 240.510 C 193.078 240.510,193.730 240.788,191.486 241.780 C 189.371 242.716,189.484 241.894,189.479 256.380 L 189.474 269.537 188.533 269.537 C 188.015 269.537,187.477 269.338,187.336 269.095 C 187.196 268.852,182.703 263.454,177.352 257.100 L 167.624 245.547 167.540 256.308 C 167.447 268.151,167.356 267.605,169.563 268.448 C 171.818 269.309,171.245 269.537,166.826 269.537 C 162.258 269.537,161.916 269.366,164.274 268.262 L 165.869 267.515 165.869 255.180 L 165.869 242.845 164.274 241.977 C 161.977 240.726,162.249 240.510,166.118 240.510 L 169.556 240.510 174.013 245.823 M227.682 244.258 C 227.787 248.448,227.630 248.595,226.232 245.619 C 224.639 242.227,223.700 241.786,218.067 241.786 L 213.703 241.786 213.789 248.086 L 213.876 254.386 216.615 254.477 C 220.235 254.598,220.941 254.302,221.783 252.310 C 222.803 249.895,222.967 250.314,222.967 255.343 C 222.967 260.044,222.724 260.951,222.060 258.735 C 221.270 256.099,220.792 255.821,217.042 255.821 L 213.716 255.821 213.716 261.750 L 213.716 267.678 215.311 268.352 C 217.777 269.394,217.313 269.537,211.483 269.537 C 205.806 269.537,205.074 269.329,207.496 268.404 L 208.931 267.856 208.931 255.129 L 208.931 242.402 207.496 241.786 C 204.732 240.602,205.539 240.498,216.826 240.586 L 227.592 240.670 227.682 244.258 M300.115 240.844 C 304.985 241.635,307.496 244.181,307.496 248.328 C 307.496 251.386,305.211 254.399,302.247 255.248 C 301.538 255.451,300.904 255.657,300.838 255.705 C 300.211 256.169,308.446 267.809,309.809 268.385 C 312.074 269.343,311.696 269.538,307.576 269.535 L 303.828 269.533 303.319 268.658 C 303.039 268.177,301.267 265.235,299.381 262.121 L 295.953 256.459 293.909 256.459 L 291.866 256.459 291.866 262.175 L 291.866 267.890 293.301 268.438 C 295.691 269.351,294.983 269.537,289.136 269.537 C 283.327 269.537,282.783 269.375,285.330 268.403 L 286.762 267.856 286.762 255.129 L 286.762 242.402 285.327 241.786 C 284.537 241.448,283.892 241.022,283.892 240.841 C 283.892 240.400,297.394 240.403,300.115 240.844 M340.642 241.395 C 353.223 245.550,353.050 265.000,340.397 268.911 C 338.271 269.568,321.850 269.896,321.850 269.282 C 321.850 269.141,322.568 268.723,323.445 268.352 L 325.040 267.678 325.040 255.106 L 325.040 242.533 323.445 241.786 C 322.568 241.375,321.850 240.906,321.850 240.744 C 321.850 240.084,338.410 240.658,340.642 241.395 M252.232 241.603 C 243.507 244.717,243.214 264.354,251.834 268.301 C 257.653 270.966,263.720 267.232,265.242 260.048 C 267.776 248.094,260.993 238.477,252.232 241.603 M292.584 241.705 C 291.866 241.831,291.866 241.833,291.866 248.507 L 291.866 255.183 294.338 255.176 C 299.714 255.159,302.071 253.557,302.568 249.582 C 303.269 243.975,298.976 240.588,292.584 241.705 M329.956 241.760 C 329.492 242.228,329.856 268.205,330.329 268.387 C 331.350 268.779,336.433 268.573,338.140 268.071 C 346.654 265.567,347.146 246.622,338.804 242.534 C 337.732 242.009,330.350 241.363,329.956 241.760 M133.806 245.375 C 133.727 245.594,132.583 248.625,131.265 252.109 C 129.946 255.594,128.868 258.501,128.868 258.569 C 128.868 258.637,131.236 258.692,134.131 258.692 C 137.026 258.692,139.394 258.633,139.394 258.560 C 139.394 258.487,138.765 256.801,137.997 254.812 C 137.229 252.823,136.066 249.797,135.412 248.086 C 134.200 244.913,134.060 244.676,133.806 245.375 M127.906 287.344 C 132.253 290.561,130.249 297.325,124.926 297.402 C 118.599 297.493,117.055 288.674,123.059 286.741 C 124.330 286.332,126.985 286.662,127.906 287.344 M227.921 286.906 C 229.167 287.426,229.237 287.597,228.527 288.382 C 228.083 288.872,227.929 288.884,227.171 288.488 C 226.053 287.905,225.732 287.923,224.875 288.616 C 223.729 289.544,224.259 290.394,226.489 291.208 C 231.558 293.056,229.304 298.570,224.023 297.240 C 222.130 296.764,221.474 295.988,222.318 295.225 C 222.907 294.692,223.004 294.688,223.745 295.173 C 224.678 295.785,226.187 295.854,226.730 295.311 C 227.435 294.606,227.182 293.474,226.236 293.103 C 225.754 292.914,224.745 292.486,223.995 292.153 C 219.654 290.225,223.514 285.064,227.921 286.906 M251.069 286.766 C 252.823 287.253,253.456 288.090,252.634 288.833 C 252.015 289.394,251.972 289.393,251.330 288.813 C 250.231 287.818,248.365 288.011,247.128 289.248 C 244.062 292.314,247.817 297.657,251.180 295.012 L 252.047 294.330 252.697 294.979 C 254.373 296.656,249.366 298.255,246.722 296.888 C 240.836 293.844,244.642 284.981,251.069 286.766 M111.962 287.546 C 111.962 288.304,111.877 288.334,109.490 288.424 L 107.018 288.517 106.919 289.872 L 106.821 291.228 109.232 291.228 C 111.591 291.228,111.643 291.245,111.643 292.026 C 111.643 292.805,111.590 292.823,109.250 292.823 L 106.858 292.823 106.858 295.056 L 106.858 297.289 105.901 297.289 L 104.944 297.289 104.944 292.026 L 104.944 286.762 108.453 286.762 L 111.962 286.762 111.962 287.546 M140.032 290.445 C 140.032 294.528,140.563 295.694,142.424 295.694 C 144.285 295.694,144.817 294.528,144.817 290.445 L 144.817 286.762 145.774 286.762 L 146.730 286.762 146.729 290.670 C 146.728 296.024,145.919 297.342,142.614 297.381 C 139.100 297.424,138.118 295.907,138.118 290.441 L 138.118 286.762 139.075 286.762 L 140.032 286.762 140.032 290.445 M159.887 290.263 C 162.729 294.563,162.679 294.563,162.679 290.271 L 162.679 286.762 163.644 286.762 L 164.609 286.762 164.521 291.946 L 164.434 297.129 163.317 297.129 C 162.247 297.129,162.103 296.980,159.809 293.493 L 157.416 289.858 157.257 293.493 L 157.097 297.129 156.220 297.230 L 155.343 297.331 155.343 292.047 L 155.343 286.762 156.458 286.762 C 157.524 286.762,157.675 286.917,159.887 290.263 M180.101 287.580 C 184.971 291.219,182.385 297.120,175.917 297.126 L 173.046 297.129 172.958 291.916 L 172.871 286.702 176.046 286.812 C 178.645 286.902,179.381 287.041,180.101 287.580 M197.520 286.940 C 198.318 287.739,197.282 288.335,194.942 288.424 L 192.504 288.517 192.405 289.713 L 192.306 290.909 194.718 290.909 C 197.066 290.909,197.129 290.930,197.129 291.693 C 197.129 292.444,197.034 292.480,194.817 292.570 L 192.504 292.663 192.406 294.019 L 192.308 295.375 195.037 295.375 L 197.767 295.375 197.767 296.332 L 197.767 297.289 194.099 297.289 L 190.431 297.289 190.431 292.026 L 190.431 286.762 193.886 286.762 C 195.787 286.762,197.422 286.842,197.520 286.940 M212.283 287.263 C 214.330 288.235,214.481 290.591,212.591 292.098 L 211.544 292.934 212.955 295.032 L 214.365 297.129 213.535 297.233 C 212.251 297.393,211.984 297.177,210.659 294.912 C 209.266 292.531,208.194 292.119,208.131 293.939 C 208.012 297.424,208.039 297.338,207.097 297.230 L 206.220 297.129 206.132 291.946 L 206.045 286.762 208.636 286.762 C 210.330 286.762,211.593 286.936,212.283 287.263 M262.839 291.069 L 262.839 295.375 265.072 295.375 L 267.305 295.375 267.305 296.332 L 267.305 297.289 264.115 297.289 L 260.925 297.289 260.925 292.026 L 260.925 286.762 261.882 286.762 L 262.839 286.762 262.839 291.069 M276.555 290.445 C 276.555 294.528,277.086 295.694,278.947 295.694 C 280.808 295.694,281.340 294.528,281.340 290.445 L 281.340 286.762 282.297 286.762 L 283.254 286.762 283.254 290.441 C 283.254 295.817,282.278 297.392,278.947 297.392 C 275.591 297.392,274.641 295.895,274.641 290.606 L 274.641 286.762 275.598 286.762 L 276.555 286.762 276.555 290.445 M297.585 287.229 C 299.027 287.975,299.392 290.031,298.265 291.051 C 297.656 291.602,297.659 291.622,298.488 292.335 C 301.115 294.594,298.646 297.289,293.950 297.289 L 291.547 297.289 291.547 292.026 L 291.547 286.762 294.115 286.762 C 295.744 286.762,297.012 286.933,297.585 287.229 M123.198 288.678 C 122.032 289.388,121.531 290.406,121.531 292.062 C 121.531 296.621,127.627 296.994,128.137 292.467 C 128.503 289.216,125.763 287.114,123.198 288.678 M175.013 288.570 C 174.896 288.687,174.801 290.266,174.801 292.079 L 174.801 295.375 176.531 295.375 C 179.463 295.375,180.933 293.466,180.159 290.663 C 179.694 288.980,176.075 287.508,175.013 288.570 M208.187 288.570 C 208.070 288.687,207.974 289.333,207.974 290.005 L 207.974 291.228 209.506 291.228 C 211.193 291.228,211.802 290.833,211.802 289.740 C 211.802 288.649,209.011 287.746,208.187 288.570 M293.461 289.633 L 293.461 290.944 294.943 290.847 C 295.932 290.782,296.543 290.563,296.776 290.191 C 297.372 289.241,296.637 288.531,294.943 288.420 L 293.461 288.322 293.461 289.633 M89.952 291.388 C 89.952 291.806,88.056 291.866,74.801 291.866 C 66.467 291.866,59.649 291.746,59.649 291.600 C 59.649 290.963,60.837 290.909,75.013 290.909 C 88.080 290.909,89.952 290.969,89.952 291.388 M340.750 291.707 C 340.668 292.034,313.804 292.348,312.978 292.031 C 312.748 291.943,312.650 291.724,312.760 291.546 C 313.034 291.102,340.861 291.262,340.750 291.707 M293.523 294.019 L 293.620 295.534 295.203 295.477 C 298.548 295.355,298.237 292.504,294.879 292.504 L 293.426 292.504 293.523 294.019 " stroke="none" fill="#fbfbfb" fill-rule="evenodd"></path><path id="path1" d="M199.574 76.362 C 198.325 84.718,196.526 86.586,188.598 87.759 C 187.152 87.973,186.019 88.199,186.081 88.261 C 186.143 88.323,187.470 88.581,189.030 88.835 C 196.913 90.117,198.289 91.573,199.654 100.083 L 200.204 103.509 200.449 101.435 C 201.547 92.126,203.290 90.120,211.415 88.813 C 213.113 88.540,214.543 88.275,214.594 88.224 C 214.645 88.173,213.401 87.955,211.829 87.740 C 203.541 86.608,201.990 84.991,200.659 76.093 L 200.136 72.601 199.574 76.362 M199.563 114.582 C 198.537 149.035,198.210 173.243,198.782 172.480 C 199.028 172.151,199.741 171.864,200.480 171.797 L 201.754 171.680 201.678 160.242 C 201.605 149.317,201.119 126.605,200.683 113.742 C 200.388 105.038,199.836 105.452,199.563 114.582 M194.824 143.860 C 194.246 145.974,192.121 174.325,192.589 173.679 C 192.718 173.501,193.325 173.368,193.939 173.385 C 195.490 173.426,195.492 173.415,195.471 164.753 C 195.447 154.382,195.090 142.882,194.824 143.860 M205.336 144.976 C 204.883 147.541,205.060 173.001,205.527 172.613 C 205.817 172.373,206.286 172.358,207.009 172.565 L 208.067 172.869 207.858 169.768 C 207.005 157.101,205.612 143.410,205.336 144.976 M181.340 174.210 C 180.112 174.560,174.514 176.123,168.900 177.684 C 163.285 179.245,155.391 181.532,151.356 182.767 C 147.321 184.003,141.329 185.831,138.040 186.831 C 134.752 187.830,132.168 188.741,132.298 188.854 C 132.429 188.968,135.263 189.931,138.596 190.994 C 151.189 195.011,174.478 202.678,187.083 206.955 L 200.162 211.394 218.662 205.250 C 228.836 201.871,244.266 196.772,252.951 193.920 C 261.635 191.067,268.596 188.688,268.421 188.633 C 268.246 188.578,266.236 187.970,263.955 187.282 C 261.675 186.594,256.077 184.877,251.515 183.465 C 243.336 180.935,240.480 180.112,224.685 175.741 C 213.185 172.559,212.943 172.348,229.187 179.670 C 238.741 183.976,246.002 187.597,245.435 187.771 C 245.270 187.822,241.116 189.068,236.204 190.540 C 231.292 192.012,221.207 195.050,213.793 197.291 L 200.313 201.365 197.525 200.561 C 195.992 200.118,188.636 197.886,181.180 195.599 C 173.724 193.313,164.825 190.626,161.404 189.628 C 157.982 188.630,155.144 187.776,155.095 187.731 C 155.046 187.685,156.051 187.104,157.328 186.439 C 158.604 185.775,160.008 184.993,160.447 184.703 C 160.885 184.412,162.967 183.408,165.072 182.470 C 167.177 181.533,172.043 179.344,175.885 177.605 C 179.727 175.867,183.316 174.249,183.860 174.011 C 185.369 173.349,183.984 173.458,181.340 174.210 M198.834 184.833 C 198.280 185.074,194.548 186.229,190.541 187.399 C 178.765 190.839,178.829 190.818,179.304 191.078 C 179.547 191.211,184.338 192.763,189.952 194.527 L 200.159 197.734 208.931 195.044 C 221.774 191.106,222.542 190.847,222.010 190.634 C 221.746 190.529,219.665 189.948,217.384 189.344 C 208.917 187.099,204.882 185.964,202.576 185.178 C 199.838 184.244,200.126 184.271,198.834 184.833 M131.490 196.560 L 131.579 200.775 133.971 201.663 C 135.287 202.152,139.809 203.788,144.019 205.299 C 148.230 206.811,162.058 211.835,174.749 216.464 C 187.440 221.093,198.027 224.880,198.274 224.880 C 198.766 224.880,198.957 215.523,198.480 214.792 C 198.218 214.391,170.162 204.800,151.037 198.573 C 144.195 196.346,137.095 194.033,135.261 193.434 C 133.426 192.835,131.807 192.344,131.663 192.344 C 131.519 192.344,131.441 194.241,131.490 196.560 M240.032 201.727 C 224.769 206.869,209.984 211.865,207.177 212.830 L 202.073 214.584 201.986 219.915 C 201.938 222.847,202.021 225.171,202.171 225.078 C 202.321 224.986,205.877 223.675,210.073 222.167 C 214.270 220.658,218.995 218.936,220.574 218.338 C 222.153 217.741,231.914 214.175,242.265 210.413 C 252.616 206.651,262.770 202.948,264.831 202.185 L 268.577 200.797 268.579 196.571 C 268.580 193.392,268.482 192.349,268.182 192.362 C 267.963 192.371,255.295 196.586,240.032 201.727 M60.990 240.342 C 56.592 241.335,54.226 244.032,54.226 248.055 C 54.226 251.912,56.300 254.121,62.254 256.604 C 68.435 259.182,69.856 260.463,69.856 263.456 C 69.856 267.042,67.866 268.740,63.661 268.740 C 59.003 268.740,56.825 267.240,54.981 262.762 C 53.828 259.961,53.578 260.427,53.798 264.967 C 54.028 269.707,53.918 269.345,54.976 268.863 C 55.669 268.547,56.224 268.609,58.287 269.230 C 66.780 271.787,74.020 268.335,73.996 261.740 C 73.982 257.744,72.370 255.867,66.667 253.205 C 58.845 249.553,58.258 249.058,58.230 246.083 C 58.164 239.158,68.550 239.460,71.652 246.474 C 72.967 249.448,73.264 248.621,72.839 243.164 L 72.636 240.555 71.874 241.055 C 71.173 241.514,70.926 241.500,68.810 240.878 C 65.679 239.959,63.384 239.801,60.990 240.342 M252.281 240.352 C 235.913 243.614,236.680 267.568,253.227 269.908 C 263.114 271.306,270.794 264.869,270.810 255.171 C 270.826 245.023,262.451 238.325,252.281 240.352 M86.977 240.750 C 86.699 241.219,86.732 247.847,87.013 247.847 C 87.170 247.847,87.494 247.254,87.733 246.529 C 88.879 243.056,90.730 241.786,94.647 241.786 L 97.129 241.786 97.060 254.785 L 96.991 267.783 95.386 268.381 C 92.786 269.350,93.458 269.537,99.522 269.537 C 105.543 269.537,106.364 269.316,103.668 268.421 L 102.073 267.891 102.050 255.557 C 102.037 248.772,101.968 242.915,101.898 242.540 C 101.731 241.655,102.658 241.465,105.581 241.786 C 108.467 242.103,109.454 242.835,110.767 245.630 C 111.730 247.679,112.476 248.346,112.414 247.103 C 112.399 246.810,112.363 245.207,112.334 243.541 L 112.281 240.510 99.700 240.510 C 92.780 240.510,87.055 240.618,86.977 240.750 M132.057 240.786 C 132.057 240.938,132.365 241.453,132.740 241.930 L 133.423 242.799 131.903 246.838 C 124.355 266.897,123.977 267.735,122.157 268.463 C 120.060 269.302,120.692 269.537,125.040 269.537 C 129.584 269.537,130.012 269.327,127.550 268.304 C 125.612 267.499,125.604 267.351,127.275 262.759 L 128.290 259.968 134.112 259.968 L 139.935 259.968 141.288 263.620 C 142.810 267.727,142.818 267.645,140.840 268.400 C 138.384 269.338,139.137 269.537,145.136 269.537 C 151.372 269.537,151.575 269.491,149.446 268.550 C 147.707 267.780,147.905 268.144,145.015 260.392 C 143.139 255.357,138.847 244.121,137.634 241.069 C 137.394 240.466,132.057 240.196,132.057 240.786 M162.679 240.809 C 162.679 240.974,163.397 241.499,164.274 241.977 L 165.869 242.845 165.869 255.180 L 165.869 267.515 164.274 268.262 C 161.916 269.366,162.258 269.537,166.826 269.537 C 171.245 269.537,171.818 269.309,169.563 268.448 C 167.356 267.605,167.447 268.151,167.540 256.308 L 167.624 245.547 177.352 257.100 C 182.703 263.454,187.196 268.852,187.336 269.095 C 187.477 269.338,188.015 269.537,188.533 269.537 L 189.474 269.537 189.479 256.380 C 189.484 241.894,189.371 242.716,191.486 241.780 C 193.730 240.788,193.078 240.510,188.498 240.510 C 183.869 240.510,183.626 240.650,186.124 241.876 L 187.879 242.736 187.879 252.489 L 187.879 262.241 184.127 257.835 C 182.064 255.412,179.947 252.913,179.422 252.282 C 178.898 251.652,176.464 248.745,174.013 245.823 L 169.556 240.510 166.118 240.510 C 164.191 240.510,162.679 240.642,162.679 240.809 M206.061 240.836 C 206.061 241.020,206.707 241.448,207.496 241.786 L 208.931 242.402 208.931 255.129 L 208.931 267.856 207.496 268.404 C 205.074 269.329,205.806 269.537,211.483 269.537 C 217.313 269.537,217.777 269.394,215.311 268.352 L 213.716 267.678 213.716 261.750 L 213.716 255.821 217.042 255.821 C 220.792 255.821,221.270 256.099,222.060 258.735 C 222.724 260.951,222.967 260.044,222.967 255.343 C 222.967 250.314,222.803 249.895,221.783 252.310 C 220.941 254.302,220.235 254.598,216.615 254.477 L 213.876 254.386 213.789 248.086 L 213.703 241.786 218.067 241.786 C 223.700 241.786,224.639 242.227,226.232 245.619 C 227.630 248.595,227.787 248.448,227.682 244.258 L 227.592 240.670 216.826 240.586 C 209.474 240.529,206.061 240.608,206.061 240.836 M283.892 240.841 C 283.892 241.022,284.537 241.448,285.327 241.786 L 286.762 242.402 286.762 255.129 L 286.762 267.856 285.330 268.403 C 282.783 269.375,283.327 269.537,289.136 269.537 C 294.983 269.537,295.691 269.351,293.301 268.438 L 291.866 267.890 291.866 262.175 L 291.866 256.459 293.909 256.459 L 295.953 256.459 299.381 262.121 C 301.267 265.235,303.039 268.177,303.319 268.658 L 303.828 269.533 307.576 269.535 C 311.696 269.538,312.074 269.343,309.809 268.385 C 308.446 267.809,300.211 256.169,300.838 255.705 C 300.904 255.657,301.538 255.451,302.247 255.248 C 308.528 253.448,309.414 244.874,303.624 241.927 C 301.091 240.637,283.892 239.690,283.892 240.841 M321.850 240.744 C 321.850 240.906,322.568 241.375,323.445 241.786 L 325.040 242.533 325.040 255.106 L 325.040 267.678 323.445 268.352 C 322.568 268.723,321.850 269.141,321.850 269.282 C 321.850 269.896,338.271 269.568,340.397 268.911 C 353.050 265.000,353.223 245.550,340.642 241.395 C 338.410 240.658,321.850 240.084,321.850 240.744 M259.492 241.898 C 267.693 245.717,267.917 264.306,259.809 268.139 C 251.796 271.928,245.134 265.012,245.703 253.496 C 246.184 243.743,252.338 238.567,259.492 241.898 M299.128 242.315 C 303.321 243.809,303.954 251.151,300.135 253.979 C 299.015 254.808,297.277 255.167,294.338 255.176 L 291.866 255.183 291.866 248.507 C 291.866 241.833,291.866 241.831,292.584 241.705 C 293.925 241.471,297.762 241.829,299.128 242.315 M338.804 242.534 C 347.146 246.622,346.654 265.567,338.140 268.071 C 336.433 268.573,331.350 268.779,330.329 268.387 C 329.856 268.205,329.492 242.228,329.956 241.760 C 330.350 241.363,337.732 242.009,338.804 242.534 M135.412 248.086 C 136.066 249.797,137.229 252.823,137.997 254.812 C 138.765 256.801,139.394 258.487,139.394 258.560 C 139.394 258.633,137.026 258.692,134.131 258.692 C 131.236 258.692,128.868 258.637,128.868 258.569 C 128.868 258.501,129.946 255.594,131.265 252.109 C 132.583 248.625,133.727 245.594,133.806 245.375 C 134.060 244.676,134.200 244.913,135.412 248.086 M123.059 286.741 C 117.055 288.674,118.599 297.493,124.926 297.402 C 131.637 297.305,132.187 287.209,125.514 286.606 C 124.639 286.527,123.535 286.588,123.059 286.741 M224.666 286.665 C 223.768 286.840,222.445 288.170,222.200 289.144 C 221.765 290.878,222.566 291.663,226.236 293.103 C 227.182 293.474,227.435 294.606,226.730 295.311 C 226.187 295.854,224.678 295.785,223.745 295.173 C 223.004 294.688,222.907 294.692,222.318 295.225 C 221.474 295.988,222.130 296.764,224.023 297.240 C 229.304 298.570,231.558 293.056,226.489 291.208 C 224.259 290.394,223.729 289.544,224.875 288.616 C 225.732 287.923,226.053 287.905,227.171 288.488 C 228.005 288.923,229.027 288.433,229.027 287.598 C 229.027 286.896,226.384 286.331,224.666 286.665 M247.427 286.906 C 243.010 288.481,242.568 294.740,246.722 296.888 C 249.366 298.255,254.373 296.656,252.697 294.979 L 252.047 294.330 251.180 295.012 C 247.817 297.657,244.062 292.314,247.128 289.248 C 248.365 288.011,250.231 287.818,251.330 288.813 C 251.972 289.393,252.015 289.394,252.634 288.833 C 254.277 287.347,250.309 285.878,247.427 286.906 M104.944 292.026 L 104.944 297.289 105.901 297.289 L 106.858 297.289 106.858 295.056 L 106.858 292.823 109.250 292.823 C 111.590 292.823,111.643 292.805,111.643 292.026 C 111.643 291.245,111.591 291.228,109.232 291.228 L 106.821 291.228 106.919 289.872 L 107.018 288.517 109.490 288.424 C 111.877 288.334,111.962 288.304,111.962 287.546 L 111.962 286.762 108.453 286.762 L 104.944 286.762 104.944 292.026 M138.118 290.441 C 138.118 295.907,139.100 297.424,142.614 297.381 C 145.919 297.342,146.728 296.024,146.729 290.670 L 146.730 286.762 145.774 286.762 L 144.817 286.762 144.817 290.445 C 144.817 294.528,144.285 295.694,142.424 295.694 C 140.563 295.694,140.032 294.528,140.032 290.445 L 140.032 286.762 139.075 286.762 L 138.118 286.762 138.118 290.441 M155.343 292.047 L 155.343 297.331 156.220 297.230 L 157.097 297.129 157.257 293.493 L 157.416 289.858 159.809 293.493 C 162.103 296.980,162.247 297.129,163.317 297.129 L 164.434 297.129 164.521 291.946 L 164.609 286.762 163.644 286.762 L 162.679 286.762 162.679 290.271 C 162.679 294.563,162.729 294.563,159.887 290.263 C 157.675 286.917,157.524 286.762,156.458 286.762 L 155.343 286.762 155.343 292.047 M172.958 291.916 L 173.046 297.129 175.917 297.126 C 180.465 297.122,182.624 295.275,182.362 291.614 C 182.123 288.259,180.419 286.963,176.046 286.812 L 172.871 286.702 172.958 291.916 M190.431 292.026 L 190.431 297.289 194.099 297.289 L 197.767 297.289 197.767 296.332 L 197.767 295.375 195.037 295.375 L 192.308 295.375 192.406 294.019 L 192.504 292.663 194.817 292.570 C 197.034 292.480,197.129 292.444,197.129 291.693 C 197.129 290.930,197.066 290.909,194.718 290.909 L 192.306 290.909 192.405 289.713 L 192.504 288.517 194.942 288.424 C 197.026 288.345,197.404 288.244,197.539 287.725 C 197.779 286.807,197.609 286.762,193.886 286.762 L 190.431 286.762 190.431 292.026 M206.132 291.946 L 206.220 297.129 207.097 297.230 C 208.039 297.338,208.012 297.424,208.131 293.939 C 208.194 292.119,209.266 292.531,210.659 294.912 C 211.984 297.177,212.251 297.393,213.535 297.233 L 214.365 297.129 212.955 295.032 L 211.544 292.934 212.591 292.098 C 215.748 289.579,213.660 286.762,208.636 286.762 L 206.045 286.762 206.132 291.946 M260.925 292.026 L 260.925 297.289 264.115 297.289 L 267.305 297.289 267.305 296.332 L 267.305 295.375 265.072 295.375 L 262.839 295.375 262.839 291.069 L 262.839 286.762 261.882 286.762 L 260.925 286.762 260.925 292.026 M274.641 290.606 C 274.641 295.895,275.591 297.392,278.947 297.392 C 282.278 297.392,283.254 295.817,283.254 290.441 L 283.254 286.762 282.297 286.762 L 281.340 286.762 281.340 290.445 C 281.340 294.528,280.808 295.694,278.947 295.694 C 277.086 295.694,276.555 294.528,276.555 290.445 L 276.555 286.762 275.598 286.762 L 274.641 286.762 274.641 290.606 M291.547 292.026 L 291.547 297.289 293.950 297.289 C 298.646 297.289,301.115 294.594,298.488 292.335 C 297.659 291.622,297.656 291.602,298.265 291.051 C 298.877 290.497,299.068 289.209,298.685 288.212 C 298.315 287.246,296.789 286.762,294.115 286.762 L 291.547 286.762 291.547 292.026 M126.145 288.492 C 128.474 289.465,128.948 293.048,126.980 294.806 C 124.713 296.832,121.531 295.230,121.531 292.062 C 121.531 289.082,123.645 287.447,126.145 288.492 M178.848 288.980 C 181.956 290.875,180.326 295.375,176.531 295.375 L 174.801 295.375 174.801 292.079 C 174.801 290.266,174.896 288.687,175.013 288.570 C 175.458 288.125,177.869 288.383,178.848 288.980 M211.185 288.687 C 212.786 289.544,211.672 291.228,209.506 291.228 L 207.974 291.228 207.974 290.005 C 207.974 288.317,209.400 287.732,211.185 288.687 M296.776 289.075 C 297.372 290.025,296.637 290.736,294.943 290.847 L 293.461 290.944 293.461 289.633 L 293.461 288.322 294.943 288.420 C 295.932 288.484,296.543 288.703,296.776 289.075 M59.862 291.122 C 59.745 291.239,59.649 291.454,59.649 291.600 C 59.649 291.746,66.467 291.866,74.801 291.866 C 88.056 291.866,89.952 291.806,89.952 291.388 C 89.952 290.884,60.361 290.623,59.862 291.122 M312.760 291.546 C 312.650 291.724,312.748 291.943,312.978 292.031 C 313.804 292.348,340.668 292.034,340.750 291.707 C 340.861 291.262,313.034 291.102,312.760 291.546 M296.970 293.142 C 298.199 294.371,297.423 295.396,295.203 295.477 L 293.620 295.534 293.523 294.019 L 293.426 292.504 294.879 292.504 C 295.906 292.504,296.518 292.691,296.970 293.142 " stroke="none" fill="#1A1A2E" fill-rule="evenodd"></path></g></svg>