<?xml version="1.0" encoding="UTF-8" standalone="no"?>
<svg
   id="svg"
   version="1.1"
   width="400"
   height="400"
   viewBox="0 0 400 400"
   sodipodi:docname="WhiteVector Stanford Founders Club Logo.svg"
   inkscape:version="1.4.2 (f4327f4, 2025-05-13)"
   inkscape:export-filename="BlackVector Stanford Founders Club Logo.png"
   inkscape:export-xdpi="480"
   inkscape:export-ydpi="480"
   xmlns:inkscape="http://www.inkscape.org/namespaces/inkscape"
   xmlns:sodipodi="http://sodipodi.sourceforge.net/DTD/sodipodi-0.dtd"
   xmlns="http://www.w3.org/2000/svg"
   xmlns:svg="http://www.w3.org/2000/svg">
  <defs
     id="defs1">
    <clipPath
       clipPathUnits="userSpaceOnUse"
       id="clipPath5">
      <path
         sodipodi:type="star"
         style="display:inline;vector-effect:non-scaling-stroke;fill:#ffffff;fill-opacity:1;stroke:#ffffff;stroke-opacity:1;-inkscape-stroke:hairline"
         id="path5"
         inkscape:flatsided="true"
         sodipodi:sides="4"
         sodipodi:cx="45.370674"
         sodipodi:cy="228.30138"
         sodipodi:r1="148.13545"
         sodipodi:r2="104.74758"
         sodipodi:arg1="0.78539816"
         sodipodi:arg2="1.5707963"
         inkscape:rounded="0"
         inkscape:randomized="0"
         d="m 150.11826,333.04896 -209.495168,0 -10e-7,-209.49517 209.495169,0 z"
         transform="matrix(1.5134256,0,0,0.83649203,130.8803,-45.941986)" />
    </clipPath>
  </defs>
  <sodipodi:namedview
     id="namedview1"
     pagecolor="#ffffff"
     bordercolor="#000000"
     borderopacity="0.25"
     inkscape:showpageshadow="2"
     inkscape:pageopacity="0.0"
     inkscape:pagecheckerboard="0"
     inkscape:deskcolor="#d1d1d1"
     inkscape:zoom="1.465"
     inkscape:cx="221.50171"
     inkscape:cy="209.55631"
     inkscape:window-width="1440"
     inkscape:window-height="830"
     inkscape:window-x="2553"
     inkscape:window-y="376"
     inkscape:window-maximized="1"
     inkscape:current-layer="svgg" />
  <g
     id="svgg">
    <path
       id="path1"
       d="m 197.71976,76.362 c -1.249,8.356 -3.048,10.224 -10.976,11.397 -1.446,0.214 -2.579,0.44 -2.517,0.502 0.062,0.062 1.389,0.32 2.949,0.574 7.883,1.282 9.259,2.738 10.624,11.248 l 0.55,3.426 0.245,-2.074 c 1.098,-9.309 2.841,-11.315 10.966,-12.622 1.698,-0.273 3.128,-0.538 3.179,-0.589 0.051,-0.051 -1.193,-0.269 -2.765,-0.484 -8.288,-1.132 -9.839,-2.749 -11.17,-11.647 l -0.523,-3.492 -0.562,3.761 m -0.011,38.22 c -1.026,34.453 -1.353,58.661 -0.781,57.898 0.246,-0.329 0.959,-0.616 1.698,-0.683 l 1.274,-0.117 -0.076,-11.438 c -0.073,-10.925 -0.559,-33.637 -0.995,-46.5 -0.295,-8.704 -0.847,-8.29 -1.12,0.84 m -4.739,29.278 c -0.578,2.114 -2.703,30.465 -2.235,29.819 0.129,-0.178 0.736,-0.311 1.35,-0.294 1.551,0.041 1.553,0.03 1.532,-8.632 -0.024,-10.371 -0.381,-21.871 -0.647,-20.893 m 10.512,1.116 c -0.453,2.565 -0.276,28.025 0.191,27.637 0.29,-0.24 0.759,-0.255 1.482,-0.048 l 1.058,0.304 -0.209,-3.101 c -0.853,-12.667 -2.246,-26.358 -2.522,-24.792 m -23.996,29.234 c -1.228,0.35 -6.826,1.913 -12.44,3.474 -5.615,1.561 -13.509,3.848 -17.544,5.083 -4.035,1.236 -10.027,3.064 -13.316,4.064 -3.288,0.999 -5.872,1.91 -5.742,2.023 0.131,0.114 2.965,1.077 6.298,2.14 12.593,4.017 35.882,11.684 48.487,15.961 l 13.079,4.439 18.5,-6.144 c 10.174,-3.379 25.604,-8.478 34.289,-11.33 8.684,-2.853 15.645,-5.232 15.47,-5.287 -0.175,-0.055 -2.185,-0.663 -4.466,-1.351 -2.28,-0.688 -7.878,-2.405 -12.44,-3.817 -8.179,-2.53 -11.035,-3.353 -26.83,-7.724 -11.5,-3.182 -11.742,-3.393 4.502,3.929 9.554,4.306 16.815,7.927 16.248,8.101 -0.165,0.051 -4.319,1.297 -9.231,2.769 -4.912,1.472 -14.997,4.51 -22.411,6.751 l -13.48,4.074 -2.788,-0.804 c -1.533,-0.443 -8.889,-2.675 -16.345,-4.962 -7.456,-2.286 -16.355,-4.973 -19.776,-5.971 -3.422,-0.998 -6.26,-1.852 -6.309,-1.897 -0.049,-0.046 0.956,-0.627 2.233,-1.292 1.276,-0.664 2.68,-1.446 3.119,-1.736 0.438,-0.291 2.52,-1.295 4.625,-2.233 2.105,-0.937 6.971,-3.126 10.813,-4.865 3.842,-1.738 7.431,-3.356 7.975,-3.594 1.509,-0.662 0.124,-0.553 -2.52,0.199 m 17.494,10.623 c -0.554,0.241 -4.286,1.396 -8.293,2.566 -11.776,3.44 -11.712,3.419 -11.237,3.679 0.243,0.133 5.034,1.685 10.648,3.449 l 10.207,3.207 8.772,-2.69 c 12.843,-3.938 13.611,-4.197 13.079,-4.41 -0.264,-0.105 -2.345,-0.686 -4.626,-1.29 -8.467,-2.245 -12.502,-3.38 -14.808,-4.166 -2.738,-0.934 -2.45,-0.907 -3.742,-0.345 m -67.344,11.727 0.089,4.215 2.392,0.888 c 1.316,0.489 5.838,2.125 10.048,3.636 4.211,1.512 18.039,6.536 30.73,11.165 12.691,4.629 23.278,8.416 23.525,8.416 0.492,0 0.683,-9.357 0.206,-10.088 -0.262,-0.401 -28.318,-9.992 -47.443,-16.219 -6.842,-2.227 -13.942,-4.54 -15.776,-5.139 -1.835,-0.599 -3.454,-1.09 -3.598,-1.09 -0.144,0 -0.222,1.897 -0.173,4.216 m 108.542,5.167 c -15.263,5.142 -30.048,10.138 -32.855,11.103 l -5.104,1.754 -0.087,5.331 c -0.048,2.932 0.035,5.256 0.185,5.163 0.15,-0.092 3.706,-1.403 7.902,-2.911 4.197,-1.509 8.922,-3.231 10.501,-3.829 1.579,-0.597 11.34,-4.163 21.691,-7.925 10.351,-3.762 20.505,-7.465 22.566,-8.228 l 3.746,-1.388 0.002,-4.226 c 10e-4,-3.179 -0.097,-4.222 -0.397,-4.209 -0.219,0.009 -12.887,4.224 -28.15,9.365 M 59.135763,240.342 c -4.398,0.993 -6.764,3.69 -6.764,7.713 0,3.857 2.074,6.066 8.028,8.549 6.181,2.578 7.602,3.859 7.602,6.852 0,3.586 -1.99,5.284 -6.195,5.284 -4.658,0 -6.836,-1.5 -8.68,-5.978 -1.153,-2.801 -1.403,-2.335 -1.183,2.205 0.23,4.74 0.12,4.378 1.178,3.896 0.693,-0.316 1.248,-0.254 3.311,0.367 8.493,2.557 15.733,-0.895 15.709,-7.49 -0.014,-3.996 -1.626,-5.873 -7.329,-8.535 -7.822,-3.652 -8.409,-4.147 -8.437,-7.122 -0.066,-6.925 10.32,-6.623 13.422,0.391 1.315,2.974 1.612,2.147 1.187,-3.31 l -0.203,-2.609 -0.762,0.5 c -0.701,0.459 -0.948,0.445 -3.064,-0.177 -3.131,-0.919 -5.426,-1.077 -7.82,-0.536 m 191.290997,0.01 c -16.368,3.262 -15.601,27.216 0.946,29.556 9.887,1.398 17.567,-5.039 17.583,-14.737 0.016,-10.148 -8.359,-16.846 -18.529,-14.819 M 85.122763,240.75 c -0.278,0.469 -0.245,7.097 0.036,7.097 0.157,0 0.481,-0.593 0.72,-1.318 1.146,-3.473 2.997,-4.743 6.914,-4.743 h 2.482 l -0.069,12.999 -0.069,12.998 -1.605,0.598 c -2.6,0.969 -1.928,1.156 4.136,1.156 6.020997,0 6.841997,-0.221 4.145997,-1.116 l -1.595,-0.53 -0.023,-12.334 c -0.013,-6.785 -0.082,-12.642 -0.152,-13.017 -0.166997,-0.885 0.76,-1.075 3.683,-0.754 2.886,0.317 3.873,1.049 5.186,3.844 0.963,2.049 1.709,2.716 1.647,1.473 -0.015,-0.293 -0.051,-1.896 -0.08,-3.562 l -0.053,-3.031 H 97.845763 c -6.92,0 -12.645,0.108 -12.723,0.24 m 45.079997,0.036 c 0,0.152 0.308,0.667 0.683,1.144 l 0.683,0.869 -1.52,4.039 c -7.548,20.059 -7.926,20.897 -9.746,21.625 -2.097,0.839 -1.465,1.074 2.883,1.074 4.544,0 4.972,-0.21 2.51,-1.233 -1.938,-0.805 -1.946,-0.953 -0.275,-5.545 l 1.015,-2.791 h 5.822 5.823 l 1.353,3.652 c 1.522,4.107 1.53,4.025 -0.448,4.78 -2.456,0.938 -1.703,1.137 4.296,1.137 6.236,0 6.439,-0.046 4.31,-0.987 -1.739,-0.77 -1.541,-0.406 -4.431,-8.158 -1.876,-5.035 -6.168,-16.271 -7.381,-19.323 -0.24,-0.603 -5.577,-0.873 -5.577,-0.283 m 30.622,0.023 c 0,0.165 0.718,0.69 1.595,1.168 l 1.595,0.868 v 12.335 12.335 l -1.595,0.747 c -2.358,1.104 -2.016,1.275 2.552,1.275 4.419,0 4.992,-0.228 2.737,-1.089 -2.207,-0.843 -2.116,-0.297 -2.023,-12.14 l 0.084,-10.761 9.728,11.553 c 5.351,6.354 9.844,11.752 9.984,11.995 0.141,0.243 0.679,0.442 1.197,0.442 h 0.941 l 0.005,-13.157 c 0.005,-14.486 -0.108,-13.664 2.007,-14.6 2.244,-0.992 1.592,-1.27 -2.988,-1.27 -4.629,0 -4.872,0.14 -2.374,1.366 l 1.755,0.86 v 9.753 9.752 l -3.752,-4.406 c -2.063,-2.423 -4.18,-4.922 -4.705,-5.553 -0.524,-0.63 -2.958,-3.537 -5.409,-6.459 l -4.457,-5.313 h -3.438 c -1.927,0 -3.439,0.132 -3.439,0.299 m 43.382,0.027 c 0,0.184 0.646,0.612 1.435,0.95 l 1.435,0.616 v 12.727 12.727 l -1.435,0.548 c -2.422,0.925 -1.69,1.133 3.987,1.133 5.83,0 6.294,-0.143 3.828,-1.185 l -1.595,-0.674 v -5.928 -5.929 h 3.326 c 3.75,0 4.228,0.278 5.018,2.914 0.664,2.216 0.907,1.309 0.907,-3.392 0,-5.029 -0.164,-5.448 -1.184,-3.033 -0.842,1.992 -1.548,2.288 -5.168,2.167 l -2.739,-0.091 -0.087,-6.3 -0.086,-6.3 h 4.364 c 5.633,0 6.572,0.441 8.165,3.833 1.398,2.976 1.555,2.829 1.45,-1.361 l -0.09,-3.588 -10.766,-0.084 c -7.352,-0.057 -10.765,0.022 -10.765,0.25 m 77.831,0.005 c 0,0.181 0.645,0.607 1.435,0.945 l 1.435,0.616 v 12.727 12.727 l -1.432,0.547 c -2.547,0.972 -2.003,1.134 3.806,1.134 5.847,0 6.555,-0.186 4.165,-1.099 l -1.435,-0.548 v -5.715 -5.716 h 2.043 2.044 l 3.428,5.662 c 1.886,3.114 3.658,6.056 3.938,6.537 l 0.509,0.875 3.748,0.002 c 4.12,0.003 4.498,-0.192 2.233,-1.15 -1.363,-0.576 -9.598,-12.216 -8.971,-12.68 0.066,-0.048 0.7,-0.254 1.409,-0.457 6.281,-1.8 7.167,-10.374 1.377,-13.321 -2.533,-1.29 -19.732,-2.237 -19.732,-1.086 m 37.958,-0.097 c 0,0.162 0.718,0.631 1.595,1.042 l 1.595,0.747 v 12.573 12.572 l -1.595,0.674 c -0.877,0.371 -1.595,0.789 -1.595,0.93 0,0.614 16.421,0.286 18.547,-0.371 12.653,-3.911 12.826,-23.361 0.245,-27.516 -2.232,-0.737 -18.792,-1.311 -18.792,-0.651 m -62.358,1.154 c 8.201,3.819 8.425,22.408 0.317,26.241 -8.013,3.789 -14.675,-3.127 -14.106,-14.643 0.481,-9.753 6.635,-14.929 13.789,-11.598 m 39.636,0.417 c 4.193,1.494 4.826,8.836 1.007,11.664 -1.12,0.829 -2.858,1.188 -5.797,1.197 l -2.472,0.007 v -6.676 c 0,-6.674 0,-6.676 0.718,-6.802 1.341,-0.234 5.178,0.124 6.544,0.61 m 39.676,0.219 c 8.342,4.088 7.85,23.033 -0.664,25.537 -1.707,0.502 -6.79,0.708 -7.811,0.316 -0.473,-0.182 -0.837,-26.159 -0.373,-26.627 0.394,-0.397 7.776,0.249 8.848,0.774 m -203.392,5.552 c 0.654,1.711 1.817,4.737 2.585,6.726 0.768,1.989 1.397,3.675 1.397,3.748 0,0.073 -2.368,0.132 -5.263,0.132 -2.895,0 -5.263,-0.055 -5.263,-0.123 0,-0.068 1.078,-2.975 2.397,-6.46 1.318,-3.484 2.462,-6.515 2.541,-6.734 0.254,-0.699 0.394,-0.462 1.606,2.711 m -12.353,38.655 c -6.004,1.933 -4.46,10.752 1.867,10.661 6.711,-0.097 7.261,-10.193 0.588,-10.796 -0.875,-0.079 -1.979,-0.018 -2.455,0.135 m 101.607,-0.076 c -0.898,0.175 -2.221,1.505 -2.466,2.479 -0.435,1.734 0.366,2.519 4.036,3.959 0.946,0.371 1.199,1.503 0.494,2.208 -0.543,0.543 -2.052,0.474 -2.985,-0.138 -0.741,-0.485 -0.838,-0.481 -1.427,0.052 -0.844,0.763 -0.188,1.539 1.705,2.015 5.281,1.33 7.535,-4.184 2.466,-6.032 -2.23,-0.814 -2.76,-1.664 -1.614,-2.592 0.857,-0.693 1.178,-0.711 2.296,-0.128 0.834,0.435 1.856,-0.055 1.856,-0.89 0,-0.702 -2.643,-1.267 -4.361,-0.933 m 22.761,0.241 c -4.417,1.575 -4.859,7.834 -0.705,9.982 2.644,1.367 7.651,-0.232 5.975,-1.909 l -0.65,-0.649 -0.867,0.682 c -3.363,2.645 -7.118,-2.698 -4.052,-5.764 1.237,-1.237 3.103,-1.43 4.202,-0.435 0.642,0.58 0.685,0.581 1.304,0.02 1.643,-1.486 -2.325,-2.955 -5.207,-1.927 m -142.483,5.12 v 5.263 h 0.957 0.957 v -2.233 -2.233 h 2.392 c 2.34,0 2.393,-0.018 2.393,-0.797 0,-0.781 -0.052,-0.798 -2.411,-0.798 h -2.411 l 0.098,-1.356 0.099,-1.355 2.472,-0.093 c 2.387,-0.09 2.472,-0.12 2.472,-0.878 v -0.784 h -3.509 -3.509 v 5.264 m 33.174,-1.585 c 0,5.466 0.982,6.983 4.496,6.94 3.305,-0.039 4.114,-1.357 4.115,-6.711 l 0.001,-3.908 h -0.956 -0.957 v 3.683 c 0,4.083 -0.532,5.249 -2.393,5.249 -1.861,0 -2.392,-1.166 -2.392,-5.249 v -3.683 h -0.957 -0.957 v 3.679 m 17.225,1.606 v 5.284 l 0.877,-0.101 0.877,-0.101 0.16,-3.636 0.159,-3.635 2.393,3.635 c 2.294,3.487 2.438,3.636 3.508,3.636 h 1.117 l 0.087,-5.183 0.088,-5.184 h -0.965 -0.965 v 3.509 c 0,4.292 0.05,4.292 -2.792,-0.008 -2.212,-3.346 -2.363,-3.501 -3.429,-3.501 h -1.115 v 5.285 m 17.615,-0.131 0.088,5.213 2.871,-0.003 c 4.548,-0.004 6.707,-1.851 6.445,-5.512 -0.239,-3.355 -1.943,-4.651 -6.316,-4.802 l -3.175,-0.11 0.087,5.214 m 17.473,0.11 v 5.263 h 3.668 3.668 v -0.957 -0.957 h -2.73 -2.729 l 0.098,-1.356 0.098,-1.356 2.313,-0.093 c 2.217,-0.09 2.312,-0.126 2.312,-0.877 0,-0.763 -0.063,-0.784 -2.411,-0.784 h -2.412 l 0.099,-1.196 0.099,-1.196 2.438,-0.093 c 2.084,-0.079 2.462,-0.18 2.597,-0.699 0.24,-0.918 0.07,-0.963 -3.653,-0.963 h -3.455 v 5.264 m 15.701,-0.08 0.088,5.183 0.877,0.101 c 0.942,0.108 0.915,0.194 1.034,-3.291 0.063,-1.82 1.135,-1.408 2.528,0.973 1.325,2.265 1.592,2.481 2.876,2.321 l 0.83,-0.104 -1.41,-2.097 -1.411,-2.098 1.047,-0.836 c 3.157,-2.519 1.069,-5.336 -3.955,-5.336 h -2.591 l 0.087,5.184 m 54.793,0.08 v 5.263 h 3.19 3.19 v -0.957 -0.957 h -2.233 -2.233 v -4.306 -4.307 h -0.957 -0.957 v 5.264 m 13.716,-1.42 c 0,5.289 0.95,6.786 4.306,6.786 3.331,0 4.307,-1.575 4.307,-6.951 v -3.679 h -0.957 -0.957 v 3.683 c 0,4.083 -0.532,5.249 -2.393,5.249 -1.861,0 -2.392,-1.166 -2.392,-5.249 v -3.683 h -0.957 -0.957 v 3.844 m 16.906,1.42 v 5.263 h 2.403 c 4.696,0 7.165,-2.695 4.538,-4.954 -0.829,-0.713 -0.832,-0.733 -0.223,-1.284 0.612,-0.554 0.803,-1.842 0.42,-2.839 -0.37,-0.966 -1.896,-1.45 -4.57,-1.45 h -2.568 v 5.264 m -165.402,-3.534 c 2.329,0.973 2.803,4.556 0.835,6.314 -2.267,2.026 -5.449,0.424 -5.449,-2.744 0,-2.98 2.114,-4.615 4.614,-3.57 m 52.703,0.488 c 3.108,1.895 1.478,6.395 -2.317,6.395 h -1.73 v -3.296 c 0,-1.813 0.095,-3.392 0.212,-3.509 0.445,-0.445 2.856,-0.187 3.835,0.41 m 32.337,-0.293 c 1.601,0.857 0.487,2.541 -1.679,2.541 h -1.532 v -1.223 c 0,-1.688 1.426,-2.273 3.211,-1.318 m 85.591,0.388 c 0.596,0.95 -0.139,1.661 -1.833,1.772 l -1.482,0.097 v -1.311 -1.311 l 1.482,0.098 c 0.989,0.064 1.6,0.283 1.833,0.655 m -236.913997,2.047 c -0.117,0.117 -0.213,0.332 -0.213,0.478 0,0.146 6.818,0.266 15.152,0.266 13.255,0 15.151,-0.06 15.151,-0.478 0,-0.504 -29.591,-0.765 -30.09,-0.266 m 252.897997,0.424 c -0.11,0.178 -0.012,0.397 0.218,0.485 0.826,0.317 27.69,0.003 27.772,-0.324 0.111,-0.445 -27.716,-0.605 -27.99,-0.161 m -15.79,1.596 c 1.229,1.229 0.453,2.254 -1.767,2.335 l -1.583,0.057 -0.097,-1.515 -0.097,-1.515 h 1.453 c 1.027,0 1.639,0.187 2.091,0.638"
       stroke="none"
       fill="#0c0c0c"
       fill-rule="evenodd"
       style="display:inline;stroke:none;stroke-opacity:1;fill:#ffffff;fill-opacity:1"
       clip-path="url(#clipPath5)" />
    <text
       xml:space="preserve"
       style="font-style:normal;font-variant:normal;font-weight:normal;font-stretch:normal;font-size:15.9997px;font-family:SimSun;-inkscape-font-specification:SimSun;text-align:start;writing-mode:lr-tb;direction:ltr;text-anchor:start;display:inline;vector-effect:non-scaling-stroke;fill:#ffffff;fill-opacity:1;stroke:#ffffff;stroke-width:1.00163;stroke-opacity:1;-inkscape-stroke:hairline"
       x="123.43256"
       y="296.98157"
       id="text2"
       transform="scale(1.0018081,0.99819516)"><tspan
         sodipodi:role="line"
         id="tspan2"
         x="123.43256"
         y="296.98157"
         style="font-style:normal;font-variant:normal;font-weight:200;font-stretch:normal;font-size:15.9997px;font-family:'Source Sans Pro';-inkscape-font-specification:'Source Sans Pro Ultra-Light';fill:#ffffff;fill-opacity:1;stroke:#ffffff;stroke-width:1.00163;stroke-opacity:1">F O U N D E R S '  C L U B</tspan></text>
    <text
       xml:space="preserve"
       style="font-style:normal;font-variant:normal;font-weight:normal;font-stretch:normal;font-size:42.6667px;font-family:SimSun;-inkscape-font-specification:SimSun;text-align:start;writing-mode:lr-tb;direction:ltr;text-anchor:start;white-space:pre;inline-size:340.795;display:inline;vector-effect:non-scaling-stroke;fill:#ffffff;fill-opacity:1;stroke:#ffffff;stroke-opacity:1;-inkscape-stroke:hairline"
       x="85.432014"
       y="249.53871"
       id="text1"
       transform="translate(-32.775499,22.202669)"><tspan
         x="85.432014"
         y="249.53871"
         id="tspan5"><tspan
           style="font-family:'Times New Roman';-inkscape-font-specification:'Times New Roman, '"
           id="tspan1">S T A N F O R D</tspan></tspan></text>
    <path
       sodipodi:type="star"
       style="display:inline;vector-effect:non-scaling-stroke;fill:#ffffff;stroke:#ffffff;-inkscape-stroke:hairline;fill-opacity:1;stroke-opacity:1"
       id="path3"
       inkscape:flatsided="true"
       sodipodi:sides="4"
       sodipodi:cx="68.941978"
       sodipodi:cy="107.16724"
       sodipodi:r1="69.103989"
       sodipodi:r2="48.863899"
       sodipodi:arg1="0.78539816"
       sodipodi:arg2="1.5707963"
       inkscape:rounded="0"
       inkscape:randomized="0"
       d="m 117.80588,156.03114 -97.7278,0 -1e-6,-97.727802 97.727801,-10e-7 z"
       transform="matrix(0.30697509,0,0,0.0102325,71.33653,290.40341)" />
    <path
       sodipodi:type="star"
       style="display:inline;vector-effect:non-scaling-stroke;fill:#ffffff;stroke:#ffffff;-inkscape-stroke:hairline;fill-opacity:1;stroke-opacity:1"
       id="path3-8"
       inkscape:flatsided="true"
       sodipodi:sides="4"
       sodipodi:cx="68.941978"
       sodipodi:cy="107.16724"
       sodipodi:r1="69.103989"
       sodipodi:r2="48.863899"
       sodipodi:arg1="0.78539816"
       sodipodi:arg2="1.5707963"
       inkscape:rounded="0"
       inkscape:randomized="0"
       d="m 117.80588,156.03114 -97.7278,0 -1e-6,-97.727802 97.727801,-10e-7 z"
       transform="matrix(0.30697509,0,0,0.0102325,286.33653,290.40341)" />
  </g>
</svg>
