<?xml version="1.0" encoding="UTF-8" standalone="no"?>
<svg
   width="189.1mm"
   height="88.6mm"
   viewBox="8.04 1.66 189.08 88.64"
   version="1.1"
   id="svg1"
   sodipodi:docname="SFS_Logo.svg"
   inkscape:version="1.4.2 (f4327f4, 2025-05-13)"
   xmlns:inkscape="http://www.inkscape.org/namespaces/inkscape"
   xmlns:sodipodi="http://sodipodi.sourceforge.net/DTD/sodipodi-0.dtd"
   xmlns="http://www.w3.org/2000/svg"
   xmlns:svg="http://www.w3.org/2000/svg">
  <defs
     id="defs1" />
  <sodipodi:namedview
     id="namedview1"
     pagecolor="#ffffff"
     bordercolor="#000000"
     borderopacity="0.25"
     inkscape:showpageshadow="2"
     inkscape:pageopacity="0.0"
     inkscape:pagecheckerboard="0"
     inkscape:deskcolor="#d1d1d1"
     inkscape:document-units="mm"
     inkscape:zoom="0.5944183"
     inkscape:cx="-254.02986"
     inkscape:cy="87.480483"
     inkscape:window-width="2560"
     inkscape:window-height="1370"
     inkscape:window-x="-6"
     inkscape:window-y="-7"
     inkscape:window-maximized="1"
     inkscape:current-layer="svg1" />
  <g
     transform="matrix(1.288758,0,0,1.288758,33.793159,-182.64769)"
     id="g1">
    <path
       d="m -19.161644,149.83641 0.004,10.375 c 0.006,13.312 0.1948,16.22299 1.3418,20.70899 3.365,13.16999 13.7278705,23.68726 26.9218705,27.32226 3.7779995,1.041 6.2294295,1.25686 14.2324295,1.25586 l 6.75,-0.002 -3.76954,-3.74805 -3.76953,-3.74609 -2.31445,-0.004 c -14.2749995,-0.018 -25.7104495,-8.05772 -30.0644495,-21.13672 -1.4330005,-4.304 -1.6640705,-6.55371 -1.6640705,-16.13671 v -7.41016 l 9.7070405,0.0684 c 12.0899995,0.086 13.6623695,0.32342 18.8593695,2.85742 10.482,5.11 16.57466,15.51566 16.59766,28.34765 l 0.002,1.5 3.74414,3.74024 c 2.059,2.058 3.77922,3.70515 3.82422,3.66015 0.257,-0.257 -0.22778,-14.97832 -0.55078,-16.73632 -2.749,-14.965 -13.21356,-26.40248 -27.35156,-29.89648 -3.9709995,-0.982 -4.6868195,-1.01954 -19.2578195,-1.01954 z"
       style="fill:#8c1515;fill-opacity:1;fill-rule:evenodd"
       id="path1" />
    <text
       x="44.478119"
       y="196.39963"
       style="font-family:'Source Sans Pro';font-size:53.3333px;fill:#8c1515;fill-opacity:1"
       id="text1">SFS</text>
  </g>
</svg>
